<?xml version="1.0" encoding="utf-8"?>
<!DOCTYPE svg PUBLIC "-//W3C//DTD SVG 1.1//EN" "http://www.w3.org/Graphics/SVG/1.1/DTD/svg11.dtd">
<svg version="1.1" id="Layer_7" xmlns="http://www.w3.org/2000/svg" xmlns:xlink="http://www.w3.org/1999/xlink" x="0px" y="0px"
	 width="100%" height="100%" viewBox="0 0 87 40" enable-background="new 0 0 87 40" xml:space="preserve">
<g>
	<polygon fill="#0062AF" points="23.524,35.799 20.469,40 83.944,40 87,35.799 	"/>
	<path fill="#0062AF" d="M25.403,29.578L25.396,20c-6.625,9.688-13.36,4.514-13.36,4.514l16.471-8.399
		C26.803,10.007,21.188,5.522,14.52,5.522C6.5,5.522,0,12.005,0,20s6.5,14.477,14.52,14.477
		C18.854,34.477,22.742,32.581,25.403,29.578z M17.762,14.462L7.674,19.603C10.269,10.905,17.762,14.462,17.762,14.462z"/>
	<polygon fill="#0062AF" points="24.476,34.477 34.634,34.477 40.082,26.984 45.528,34.477 55.688,34.477 45.16,20 55.688,5.522 
		45.528,5.522 40.082,13.015 34.634,5.522 24.476,5.522 35.002,20 	"/>
	<polygon fill="#0062AF" points="65.881,0 60.103,0 56.579,4.202 65.881,4.202 	"/>
	<rect x="55.688" y="5.522" fill="#0062AF" width="10.193" height="28.954"/>
</g>
</svg>
